# xmcd
#
# Track frame offsets:
#	150
#	16492
#	34932
#
# Disc length: 607 seconds
#
# Revision: 0
# Processed by: cddbd v1.5.2PL0 Copyright (c) Steve Scherf et al.
# Submitted via: dBpowerAMP V4.0
#
DISCID=1d025d03
DTITLE=Jimmy Nail - CD SINGLE
DYEAR=1900
DGENRE=
TTITLE0=Track01 Blue Beyond The Grey
TTITLE1=Track02 The Greatest Prize In Sport
TTITLE2=Track03 When This Old Hat Was New
EXTD=Cd Single\nTrack 1 Blue Beyond The Grey\nTrack 2 The Greatest Prize In Sport\nTrack 3 When This Old Hat Was New
EXTT0=
EXTT1=
EXTT2=
PLAYORDER=
